<svg width="20" height="21" viewBox="0 0 20 21" fill="none" xmlns="http://www.w3.org/2000/svg">
<path fill-rule="evenodd" clip-rule="evenodd" d="M2.5 6.4375C2.5 5.91973 2.91973 5.5 3.4375 5.5H16.5625C17.0803 5.5 17.5 5.91973 17.5 6.4375C17.5 6.95527 17.0803 7.375 16.5625 7.375H3.4375C2.91973 7.375 2.5 6.95527 2.5 6.4375Z" fill="black"/>
<path fill-rule="evenodd" clip-rule="evenodd" d="M2.5 10.5C2.5 9.98223 2.91973 9.5625 3.4375 9.5625H16.5625C17.0803 9.5625 17.5 9.98223 17.5 10.5C17.5 11.0178 17.0803 11.4375 16.5625 11.4375H3.4375C2.91973 11.4375 2.5 11.0178 2.5 10.5Z" fill="black"/>
<path fill-rule="evenodd" clip-rule="evenodd" d="M2.5 14.5625C2.5 14.0447 2.91973 13.625 3.4375 13.625H16.5625C17.0803 13.625 17.5 14.0447 17.5 14.5625C17.5 15.0803 17.0803 15.5 16.5625 15.5H3.4375C2.91973 15.5 2.5 15.0803 2.5 14.5625Z" fill="black"/>
</svg>
