<svg width="20" height="20" viewBox="0 0 20 20" fill="none" xmlns="http://www.w3.org/2000/svg">
<g opacity="0.55" clip-path="url(#clip0_4_14)">
<path d="M9.99996 1.66669C14.6025 1.66669 18.3333 5.39752 18.3333 10C18.3333 14.6025 14.6025 18.3334 9.99996 18.3334C5.39746 18.3334 1.66663 14.6025 1.66663 10C1.66663 5.39752 5.39746 1.66669 9.99996 1.66669ZM9.99996 3.33335C8.23185 3.33335 6.53616 4.03573 5.28591 5.28598C4.03567 6.53622 3.33329 8.23191 3.33329 10C3.33329 11.7681 4.03567 13.4638 5.28591 14.7141C6.53616 15.9643 8.23185 16.6667 9.99996 16.6667C11.7681 16.6667 13.4638 15.9643 14.714 14.7141C15.9642 13.4638 16.6666 11.7681 16.6666 10C16.6666 8.23191 15.9642 6.53622 14.714 5.28598C13.4638 4.03573 11.7681 3.33335 9.99996 3.33335ZM9.99996 5.00002C10.2041 5.00005 10.4011 5.07498 10.5536 5.21062C10.7061 5.34625 10.8036 5.53314 10.8275 5.73585L10.8333 5.83335V9.65502L13.0891 11.9109C13.2386 12.0608 13.3254 12.262 13.3318 12.4737C13.3383 12.6853 13.2639 12.8914 13.1239 13.0503C12.9839 13.2091 12.7887 13.3086 12.5779 13.3287C12.3671 13.3488 12.1566 13.2879 11.9891 13.1584L11.9108 13.0892L9.41079 10.5892C9.28128 10.4596 9.19809 10.2909 9.17413 10.1092L9.16663 10V5.83335C9.16663 5.61234 9.25442 5.40038 9.4107 5.2441C9.56698 5.08782 9.77894 5.00002 9.99996 5.00002Z" fill="black"/>
</g>
<defs>
<clipPath id="clip0_4_14">
<rect width="20" height="20" fill="white"/>
</clipPath>
</defs>
</svg>
