<svg width="28" height="28" viewBox="0 0 28 28" fill="none" xmlns="http://www.w3.org/2000/svg">
<path d="M13.9999 2.33331C7.55992 2.33331 2.33325 7.55998 2.33325 14C2.33325 20.44 7.55992 25.6666 13.9999 25.6666C20.4399 25.6666 25.6666 20.44 25.6666 14C25.6666 7.55998 20.4399 2.33331 13.9999 2.33331ZM19.4132 10.2666C19.2383 12.11 18.4799 16.59 18.0949 18.655C17.9316 19.53 17.6049 19.8216 17.3016 19.8566C16.6249 19.915 16.1116 19.4133 15.4583 18.9816C14.4316 18.305 13.8483 17.885 12.8566 17.2316C11.7016 16.4733 12.4483 16.0533 13.1133 15.3766C13.2883 15.2016 16.2749 12.4833 16.3333 12.2383C16.3414 12.2012 16.3403 12.1627 16.3301 12.1261C16.3199 12.0895 16.301 12.0559 16.2749 12.0283C16.2049 11.97 16.1116 11.9933 16.0299 12.005C15.9249 12.0283 14.2916 13.1133 11.1066 15.26C10.6399 15.575 10.2199 15.7383 9.84658 15.7266C9.42658 15.715 8.63325 15.4933 8.03825 15.295C7.30325 15.0616 6.73159 14.9333 6.77825 14.525C6.80159 14.315 7.09325 14.105 7.64159 13.8833C11.0483 12.4016 13.3116 11.4216 14.4433 10.955C17.6866 9.60165 18.3516 9.36831 18.7949 9.36831C18.8883 9.36831 19.1099 9.39165 19.2499 9.50831C19.3666 9.60165 19.4016 9.72998 19.4132 9.82331C19.4016 9.89331 19.4249 10.1033 19.4132 10.2666Z" fill="#2B2B2B"/>
</svg>
