<svg width="28" height="28" viewBox="0 0 28 28" fill="none" xmlns="http://www.w3.org/2000/svg">
<path d="M11.6666 17.5L17.7216 14L11.6666 10.5V17.5ZM25.1532 8.36498C25.3049 8.91331 25.4099 9.64831 25.4799 10.5816C25.5616 11.515 25.5966 12.32 25.5966 13.02L25.6666 14C25.6666 16.555 25.4799 18.4333 25.1532 19.635C24.8616 20.685 24.1849 21.3616 23.1349 21.6533C22.5866 21.805 21.5833 21.91 20.0433 21.98C18.5266 22.0616 17.1383 22.0966 15.8549 22.0966L13.9999 22.1666C9.11159 22.1666 6.06659 21.98 4.86492 21.6533C3.81492 21.3616 3.13825 20.685 2.84659 19.635C2.69492 19.0866 2.58992 18.3516 2.51992 17.4183C2.43825 16.485 2.40325 15.68 2.40325 14.98L2.33325 14C2.33325 11.445 2.51992 9.56665 2.84659 8.36498C3.13825 7.31498 3.81492 6.63831 4.86492 6.34665C5.41325 6.19498 6.41659 6.08998 7.95659 6.01998C9.47325 5.93831 10.8616 5.90331 12.1449 5.90331L13.9999 5.83331C18.8883 5.83331 21.9333 6.01998 23.1349 6.34665C24.1849 6.63831 24.8616 7.31498 25.1532 8.36498Z" fill="#2B2B2B"/>
</svg>
