<svg width="302" height="50" viewBox="0 0 302 50" fill="none" xmlns="http://www.w3.org/2000/svg">
<g clip-path="url(#clip0_74_139)">
<path d="M301.421 21.1294L281.385 0H20.6925L0.655696 21.1294C0.598709 21.1895 0.560578 21.265 0.546023 21.3465C0.531468 21.4281 0.541128 21.5121 0.573806 21.5882C0.606485 21.6644 0.660748 21.7292 0.729882 21.7748C0.799016 21.8204 0.879986 21.8447 0.962772 21.8447H12.3492L30.3023 2.91262H271.775L289.728 21.8447H301.114C301.197 21.8447 301.278 21.8204 301.347 21.7748C301.416 21.7292 301.471 21.6644 301.503 21.5883C301.536 21.5121 301.546 21.4281 301.531 21.3465C301.517 21.265 301.478 21.1895 301.421 21.1294Z" fill="#283152"/>
<path d="M301.421 28.8706L281.385 50H20.6924L0.655571 28.8706C0.598584 28.8105 0.560455 28.735 0.5459 28.6535C0.531346 28.5719 0.541006 28.4879 0.573685 28.4118C0.606364 28.3356 0.660627 28.2708 0.72976 28.2252C0.798894 28.1796 0.879863 28.1553 0.962649 28.1553H12.3491L30.3022 47.0874H271.775L289.728 28.1553H301.114C301.197 28.1553 301.278 28.1796 301.347 28.2252C301.416 28.2708 301.471 28.3356 301.503 28.4117C301.536 28.4879 301.546 28.5719 301.531 28.6535C301.516 28.735 301.478 28.8105 301.421 28.8706Z" fill="#283152"/>
<path d="M228.168 18.4466H261.397C261.526 18.4466 261.649 18.3954 261.74 18.3044C261.831 18.2134 261.882 18.0899 261.882 17.9611V16.2621C261.882 16.1334 261.831 16.0099 261.74 15.9189C261.649 15.8278 261.526 15.7767 261.397 15.7767H220.892C218.447 15.7767 216.103 16.7484 214.375 18.4781C212.646 20.2078 211.675 22.5538 211.675 25C211.675 27.4461 212.646 29.7921 214.375 31.5218C216.103 33.2515 218.447 34.2233 220.892 34.2233H261.397C261.526 34.2233 261.649 34.1721 261.74 34.0811C261.831 33.9901 261.882 33.8666 261.882 33.7378V32.0388C261.882 31.9101 261.831 31.7866 261.74 31.6956C261.649 31.6045 261.526 31.5534 261.397 31.5534H228.168C226.431 31.5534 224.766 30.8629 223.538 29.6339C222.309 28.4049 221.619 26.738 221.619 25C221.619 24.1394 221.789 23.2872 222.118 22.4921C222.447 21.697 222.929 20.9746 223.538 20.366C224.146 19.7575 224.868 19.2748 225.662 18.9454C226.457 18.6161 227.308 18.4466 228.168 18.4466Z" fill="#283152"/>
<path d="M173.109 15.7767H165.35C165.081 15.7767 164.864 15.9944 164.864 16.263V33.7369C164.864 34.0055 165.081 34.2233 165.35 34.2233H173.109C173.378 34.2233 173.595 34.0055 173.595 33.7369V16.263C173.595 15.9944 173.378 15.7767 173.109 15.7767Z" fill="#283152"/>
<path d="M196.151 15.7767H188.391C188.123 15.7767 187.906 15.9944 187.906 16.263V33.7369C187.906 34.0055 188.123 34.2233 188.391 34.2233H196.151C196.42 34.2233 196.637 34.0055 196.637 33.7369V16.263C196.637 15.9944 196.42 15.7767 196.151 15.7767Z" fill="#283152"/>
<path d="M149.525 33.3948L138.141 28.1553H140.852C142.492 28.1553 144.065 27.5032 145.225 26.3425C146.385 25.1818 147.036 23.6075 147.036 21.966C147.036 21.1532 146.877 20.3484 146.566 19.5974C146.255 18.8465 145.799 18.1642 145.225 17.5895C144.651 17.0147 143.969 16.5588 143.218 16.2478C142.468 15.9368 141.664 15.7767 140.852 15.7767H99.0119C98.9482 15.7767 98.8852 15.7892 98.8264 15.8136C98.7676 15.838 98.7142 15.8737 98.6692 15.9187C98.6242 15.9638 98.5885 16.0172 98.5641 16.0761C98.5398 16.1349 98.5272 16.198 98.5272 16.2617V17.9616C98.5272 18.0253 98.5398 18.0883 98.5641 18.1472C98.5885 18.206 98.6242 18.2595 98.6692 18.3045C98.7142 18.3496 98.7676 18.3853 98.8264 18.4097C98.8852 18.434 98.9482 18.4466 99.0119 18.4466H134.203C135.119 18.4369 136.004 18.7787 136.676 19.4016C137.348 20.0245 137.756 20.8813 137.816 21.7958C137.839 22.2718 137.765 22.7475 137.599 23.194C137.433 23.6406 137.178 24.0487 136.849 24.3937C136.521 24.7387 136.126 25.0133 135.688 25.201C135.25 25.3886 134.779 25.4854 134.303 25.4854H99.0119C98.9482 25.4854 98.8852 25.498 98.8264 25.5223C98.7676 25.5467 98.7142 25.5824 98.6692 25.6275C98.6242 25.6725 98.5885 25.726 98.5641 25.7848C98.5398 25.8436 98.5272 25.9067 98.5272 25.9704V27.6703C98.5272 27.734 98.5398 27.7971 98.5641 27.8559C98.5885 27.9148 98.6242 27.9682 98.6692 28.0133C98.7142 28.0583 98.7676 28.094 98.8264 28.1184C98.8852 28.1428 98.9482 28.1553 99.0119 28.1553H122.575L135.275 34.0009C135.593 34.1474 135.939 34.2233 136.29 34.2233H149.343C149.442 34.2233 149.538 34.1894 149.615 34.1274C149.692 34.0653 149.746 33.9787 149.767 33.882C149.788 33.7853 149.776 33.6843 149.732 33.5957C149.687 33.5071 149.614 33.4362 149.525 33.3948Z" fill="#283152"/>
<path d="M89.6784 33.508L73.2226 16.1548C73.1093 16.0354 72.9729 15.9402 72.8217 15.8752C72.6705 15.8102 72.5076 15.7767 72.343 15.7767H47.5817C47.4171 15.7767 47.2542 15.8102 47.103 15.8752C46.9518 15.9402 46.8154 16.0354 46.7021 16.1548L30.2463 33.508C30.1893 33.5681 30.1511 33.6436 30.1366 33.7252C30.122 33.8067 30.1317 33.8907 30.1644 33.9669C30.1971 34.043 30.2513 34.1078 30.3205 34.1534C30.3896 34.199 30.4706 34.2233 30.5533 34.2233H39.424C39.6824 34.2233 39.9381 34.1706 40.1755 34.0685C40.413 33.9665 40.6271 33.8171 40.805 33.6295L54.8437 18.8253C54.9572 18.7056 55.0938 18.6104 55.2452 18.5453C55.3966 18.4802 55.5597 18.4466 55.7246 18.4466H64.2001C64.365 18.4466 64.5281 18.4802 64.6795 18.5453C64.8309 18.6104 64.9675 18.7056 65.081 18.8253L79.1197 33.6295C79.2976 33.8171 79.5117 33.9665 79.7492 34.0685C79.9866 34.1706 80.2423 34.2233 80.5007 34.2233H89.3714C89.4541 34.2233 89.5351 34.199 89.6042 34.1534C89.6734 34.1078 89.7276 34.043 89.7603 33.9669C89.793 33.8907 89.8027 33.8067 89.7881 33.7252C89.7736 33.6436 89.7354 33.5681 89.6784 33.508Z" fill="#283152"/>
</g>
<defs>
<clipPath id="clip0_74_139">
<rect width="301" height="50" fill="white" transform="translate(0.538452)"/>
</clipPath>
</defs>
</svg>
