<svg width="28" height="28" viewBox="0 0 28 28" fill="none" xmlns="http://www.w3.org/2000/svg">
<path fill-rule="evenodd" clip-rule="evenodd" d="M6.75741 2.33331H1.16675V4.66665H4.92108L8.15275 19.4576H8.16675V19.8333H23.3334V19.544L25.8919 8.27281L26.2862 6.99998H7.76425L7.09925 3.95381L6.75741 2.33331ZM23.3182 9.33331H8.27408L10.0579 17.5H21.4644L23.3182 9.33331Z" fill="#2A2A2A"/>
<path d="M11.6668 25.6667C12.2857 25.6667 12.8792 25.4208 13.3167 24.9832C13.7543 24.5457 14.0002 23.9522 14.0002 23.3333C14.0002 22.7145 13.7543 22.121 13.3167 21.6834C12.8792 21.2458 12.2857 21 11.6668 21C11.048 21 10.4545 21.2458 10.0169 21.6834C9.57933 22.121 9.3335 22.7145 9.3335 23.3333C9.3335 23.9522 9.57933 24.5457 10.0169 24.9832C10.4545 25.4208 11.048 25.6667 11.6668 25.6667ZM22.1668 23.3333C22.1668 23.9522 21.921 24.5457 21.4834 24.9832C21.0458 25.4208 20.4523 25.6667 19.8335 25.6667C19.2147 25.6667 18.6212 25.4208 18.1836 24.9832C17.746 24.5457 17.5002 23.9522 17.5002 23.3333C17.5002 22.7145 17.746 22.121 18.1836 21.6834C18.6212 21.2458 19.2147 21 19.8335 21C20.4523 21 21.0458 21.2458 21.4834 21.6834C21.921 22.121 22.1668 22.7145 22.1668 23.3333Z" fill="#2A2A2A"/>
</svg>
