<svg width="28" height="28" viewBox="0 0 28 28" fill="none" xmlns="http://www.w3.org/2000/svg">
<path d="M25.088 21.4445H22.4257C21.4188 21.4445 21.1155 20.629 19.3107 18.823C17.7333 17.3028 17.0672 17.1138 16.6682 17.1138C16.1163 17.1138 15.9658 17.2655 15.9658 18.025V20.419C15.9658 21.0665 15.7558 21.4456 14.0642 21.4456C12.423 21.3354 10.8315 20.8368 9.4208 19.991C8.01007 19.1452 6.82048 17.9763 5.95 16.5806C3.88312 14.0082 2.44499 10.9889 1.75 7.76298C1.75 7.36398 1.90167 7.00232 2.66233 7.00232H5.32233C6.006 7.00232 6.25217 7.30682 6.5205 8.01032C7.812 11.8113 10.0158 15.1176 10.9107 15.1176C11.2537 15.1176 11.403 14.966 11.403 14.1108V10.1955C11.2898 8.40932 10.3413 8.25882 10.3413 7.61248C10.3533 7.44196 10.4313 7.28284 10.5588 7.16891C10.6862 7.05498 10.853 6.99521 11.0238 7.00232H15.2052C15.7768 7.00232 15.9658 7.28698 15.9658 7.97065V13.2556C15.9658 13.8261 16.2108 14.0151 16.3835 14.0151C16.7265 14.0151 16.9902 13.8261 17.619 13.1985C18.9669 11.5546 20.0681 9.72318 20.888 7.76182C20.9719 7.52633 21.1306 7.32475 21.3397 7.18784C21.5489 7.05092 21.7971 6.98618 22.0465 7.00348H24.7077C25.5057 7.00348 25.6748 7.40248 25.5057 7.97182C24.5378 10.14 23.3401 12.1981 21.9333 14.1108C21.6463 14.5483 21.532 14.7758 21.9333 15.2891C22.197 15.6881 23.1303 16.4675 23.7568 17.2083C24.6692 18.1183 25.4263 19.1706 25.9992 20.3233C26.2278 21.0653 25.8475 21.4445 25.088 21.4445Z" fill="#2B2B2B"/>
</svg>
