<svg width="28" height="28" viewBox="0 0 28 28" fill="none" xmlns="http://www.w3.org/2000/svg">
<path fill-rule="evenodd" clip-rule="evenodd" d="M19.7105 18.0556C21.1653 16.18 21.851 13.8206 21.628 11.4575C21.4049 9.09429 20.29 6.90484 18.51 5.33455C16.73 3.76425 14.4186 2.93105 12.046 3.00447C9.6735 3.07789 7.41805 4.0524 5.73853 5.72975C4.05755 7.40826 3.07985 9.66459 3.00468 12.0389C2.92951 14.4133 3.76252 16.7269 5.33396 18.5084C6.90541 20.2899 9.09701 21.4051 11.4622 21.6269C13.8273 21.8486 16.188 21.1601 18.0632 19.7017L18.1134 19.7542L23.0624 24.7044C23.1708 24.8128 23.2994 24.8988 23.4411 24.9575C23.5827 25.0161 23.7345 25.0463 23.8878 25.0463C24.0411 25.0463 24.1929 25.0161 24.3345 24.9575C24.4761 24.8988 24.6048 24.8128 24.7132 24.7044C24.8216 24.596 24.9076 24.4673 24.9662 24.3257C25.0249 24.1841 25.0551 24.0323 25.0551 23.879C25.0551 23.7257 25.0249 23.5739 24.9662 23.4323C24.9076 23.2907 24.8216 23.162 24.7132 23.0536L19.763 18.1046C19.746 18.0878 19.7285 18.0714 19.7105 18.0556ZM17.2885 7.38058C17.9472 8.02864 18.4711 8.8007 18.8299 9.65224C19.1888 10.5038 19.3754 11.4179 19.3792 12.342C19.383 13.266 19.2037 14.1817 18.8519 15.0361C18.5 15.8905 17.9824 16.6668 17.329 17.3202C16.6756 17.9736 15.8993 18.4912 15.0449 18.8431C14.1904 19.195 13.2748 19.3742 12.3508 19.3704C11.4267 19.3667 10.5126 19.18 9.66102 18.8211C8.80949 18.4623 8.03742 17.9384 7.38936 17.2797C6.09427 15.9634 5.3718 14.1886 5.37932 12.342C5.38683 10.4953 6.12374 8.7265 7.42951 7.42073C8.73528 6.11495 10.5041 5.37805 12.3508 5.37053C14.1974 5.36301 15.9722 6.08549 17.2885 7.38058Z" fill="#2A2A2A"/>
</svg>
