<svg width="232" height="51" viewBox="0 0 232 51" fill="none" xmlns="http://www.w3.org/2000/svg">
<g clip-path="url(#clip0_1_781)">
<path fill-rule="evenodd" clip-rule="evenodd" d="M-0.0603027 10.9211H3.68993L16.9261 30.5163L18.5648 28.0806L13.2467 20.4837C11.2928 17.8758 8.82681 14.1713 8.165 10.9133C7.71592 8.6969 8.10197 6.29253 9.29953 4.37374C10.6704 2.17301 12.7976 0.849437 15.5 0.661474C18.1866 0.473511 20.4005 1.22536 22.3702 3.31645C22.4805 3.4261 22.5829 3.46526 22.7011 3.4261C22.8272 3.37911 23.0872 3.08933 23.2053 2.97969C24.1035 2.16518 25.0568 1.67961 26.081 1.52297C26.0889 1.81275 26.0968 1.95372 26.0968 1.95372C23.8908 3.62972 24.3241 5.54068 24.3083 7.92938C24.2138 9.5114 23.6623 10.7723 22.6538 11.7121C21.7714 12.5971 20.7157 13.1375 19.4787 13.3333C19.4787 12.9731 19.4787 12.7929 19.4787 12.7929C21.4642 11.6495 21.8738 9.47224 21.2199 7.42031C20.4478 5.00029 17.8873 3.48875 15.2085 4.10746C13.6485 4.46773 12.2934 5.54068 11.7261 7.13054C10.6468 10.1536 12.8449 13.9285 14.5388 16.4034L20.5975 25.0967L30.2252 10.8976H33.8888L33.9045 37.2359L30.0755 37.2829V16.701L18.7933 33.2652C19.6363 34.4322 20.4005 35.6853 21.0702 37.0323C22.1102 39.1156 21.6532 41.9507 19.7466 43.3917C17.6588 44.9738 14.4758 44.496 13.0261 42.2875C11.8207 40.4548 12.1122 38.583 12.9552 36.7191C13.294 35.975 13.7273 35.2075 14.2631 34.4243C15.5788 36.3431 16.2406 37.3064 16.2406 37.3064C15.6418 38.2071 14.917 39.7813 15.7679 40.7211C16.1303 41.1283 16.7055 41.3085 17.2727 41.1753C18.3363 40.9247 18.5884 39.9457 18.4703 38.9981C18.3678 38.1758 17.1309 36.4684 16.6109 35.6539L3.76872 16.7088L3.72145 37.1263H-0.0603027V10.9211Z" fill="#FF4439"/>
<path fill-rule="evenodd" clip-rule="evenodd" d="M21.1806 32.067L23.2369 29.0596C23.9223 30.1952 25.0175 31.8869 25.9156 33.5315C27.1447 35.7793 27.8853 37.933 27.7592 40.2355C27.5701 43.6267 25.7423 46.6654 23.0084 48.5529C19.7466 50.7928 15.9964 50.9416 12.7819 49.524C10.765 48.6312 8.9529 47.1275 7.59777 45.1304C7.5505 45.0599 7.47171 44.8955 7.38505 44.8955C7.27475 44.8955 7.22747 44.9973 7.17232 45.0756C6.50264 46.0467 5.57296 46.6341 4.3754 46.8299C4.18632 46.8612 3.76087 47.0022 3.72148 46.7203C3.68996 46.5245 4.02874 46.3522 4.17844 46.2425C6.33719 44.6135 6.0378 42.7965 6.23477 40.682C6.30567 39.9693 6.3687 39.2879 6.70748 38.8415C7.20384 38.1993 8.41715 38.0583 8.93714 38.7553C9.16562 39.0608 9.35471 39.7735 9.48077 40.3687C9.59895 40.9561 9.725 41.5043 9.88258 42.0212C10.8989 45.3027 14.5152 47.4095 17.8636 47.0257C21.0624 46.6654 23.1108 44.5978 24.072 41.7392C24.6393 40.0397 24.4108 38.3324 23.7647 36.7347C23.1187 35.2075 22.0078 33.508 21.1806 32.067Z" fill="#FF4439"/>
<path d="M220.81 33.6098H231.706V31.9729H222.89V26.2714L230.193 26.2949V24.5876H222.89V19.1366L231.422 19.1601V17.5076L220.81 17.4841V33.6098Z" fill="black"/>
<path d="M201.988 33.6098H204.036V21.3452C204.036 21.2591 204.004 21.0398 204.107 21.0241C204.186 21.0085 204.225 21.0633 204.272 21.1181L213.522 32.6778C213.616 32.7953 213.727 32.9128 213.79 33.0459C213.869 33.2026 213.916 33.3827 213.932 33.602H216.019L216.051 17.5076L213.971 17.4998L213.947 29.8114C213.947 29.8662 213.955 29.9445 213.876 29.9602C213.79 29.9837 213.711 29.874 213.664 29.8114L203.808 17.4763H201.988V33.6098Z" fill="black"/>
<path d="M197.276 17.4841H195.196V33.6803H197.276V17.4841Z" fill="black"/>
<path d="M181.062 17.3745H179.029V33.602H181.062V17.3745Z" fill="#FEFEFE"/>
<path d="M181.062 27.548V33.6098H179.029V17.4841L185.364 17.4998C188.003 17.5076 190.729 19.2854 191.091 21.9796C191.367 24.0472 190.02 26.0521 188.074 26.8823C187.948 26.9371 187.475 27.0859 187.42 27.1642C187.318 27.3052 187.499 27.5245 187.585 27.642C188.94 29.5294 190.351 31.5187 191.808 33.6098H189.397L185.781 28.1667C185.663 27.9866 185.521 27.7281 185.34 27.6185C185.206 27.5402 185.119 27.548 184.978 27.548H181.062ZM181.062 19.168V25.9581L184.907 25.966C185.553 25.966 186.081 25.8798 186.711 25.684C187.822 25.3394 188.547 24.7599 188.885 23.9375C189.098 23.3501 189.193 22.8019 189.161 22.2772C189.106 21.1337 188.484 20.1469 187.428 19.6457C185.899 18.9252 182.701 18.98 181.062 19.168Z" fill="black"/>
<path d="M162.366 33.6098H160.042L167.038 17.4841L169.165 17.492L176.067 33.6098H173.924L171.915 28.7854L164.375 28.7228L162.366 33.6098ZM167.968 19.959L165.029 27.0859L171.206 27.0781L168.338 20.1548C168.298 20.0686 168.212 19.8023 168.149 19.7632C168.054 19.7005 167.991 19.8963 167.968 19.959Z" fill="black"/>
<path d="M142.165 33.6098H140.085L140.117 17.4841H142.07L148.405 29.5686C148.46 29.6704 148.515 29.7487 148.57 29.7879C148.641 29.8427 148.681 29.8427 148.744 29.7879C148.822 29.7174 148.909 29.5843 148.996 29.3728L155.181 17.5155L157.166 17.5233V33.6176H155.133V22.0109C155.133 21.9326 155.157 21.6585 155.102 21.6272C154.991 21.5645 154.889 21.7916 154.858 21.8543L149.689 31.6362C149.445 32.1061 149.295 32.3959 148.665 32.3724C148.224 32.3567 148.011 32.1609 147.838 31.8868C147.57 31.4561 147.318 30.9157 147.073 30.4614L142.535 21.7995C142.488 21.7055 142.386 21.4392 142.267 21.447C142.126 21.4549 142.157 21.5802 142.157 21.6898V33.6098H142.165Z" fill="black"/>
<path d="M116.851 27.548V33.6098H114.818V17.4841L121.153 17.4998C123.784 17.5076 126.518 19.2854 126.88 21.9796C127.156 24.0472 125.809 26.0521 123.863 26.8823C123.737 26.9371 123.264 27.0859 123.209 27.1642C123.107 27.3052 123.288 27.5245 123.374 27.642C124.73 29.5294 126.14 31.5187 127.597 33.6098H125.187L121.57 28.1667C121.452 27.9866 121.31 27.7281 121.129 27.6185C120.995 27.5402 120.908 27.548 120.767 27.548H116.851ZM116.851 19.168V25.9581L120.696 25.966C121.342 25.966 121.87 25.8798 122.5 25.684C123.611 25.3394 124.336 24.7599 124.674 23.9375C124.887 23.3501 124.982 22.8019 124.95 22.2772C124.895 21.1337 124.273 20.1469 123.217 19.6457C121.696 18.9252 118.49 18.98 116.851 19.168Z" fill="black"/>
<path d="M100.203 33.6098H111.107V31.9729H102.283V26.2714L109.587 26.2949V24.5876H102.283V19.1366L110.824 19.1601V17.5076L100.203 17.4841V33.6098Z" fill="black"/>
<path d="M86.5654 27.548V33.6098H84.5327V17.4841L90.8671 17.4998C93.5065 17.5076 96.2325 19.2854 96.5949 21.9796C97.0125 25.0731 94.2865 27.0781 91.4974 27.4775C91.1587 27.5245 90.8199 27.548 90.4811 27.548H86.5654ZM86.5654 19.168V25.9581L90.4102 25.966C91.0562 25.966 91.5841 25.8798 92.2144 25.684C93.3253 25.3394 94.0501 24.7599 94.3889 23.9375C94.6016 23.3501 94.6962 22.8019 94.6725 22.2772C94.6174 21.1337 93.995 20.1469 92.9313 19.6457C91.4029 18.9252 88.1963 18.98 86.5654 19.168Z" fill="black"/>
<path d="M77.5759 17.4841H79.6953L79.7268 33.5941H77.8438L77.8359 32.1139C77.8359 32.0278 77.8595 31.8241 77.7729 31.785C77.6468 31.7302 77.3317 32.0434 77.2292 32.1218C76.0474 33.0146 74.7711 33.555 73.3923 33.7508C71.7457 33.9857 69.7288 33.5393 68.4445 32.4194C66.2228 30.4692 66.8531 26.4672 66.7506 23.3501V17.492H68.6179L68.5706 27.1721C68.6415 28.8402 68.9567 30.0385 69.5082 30.7669C70.493 32.0513 72.5493 32.3175 74.0384 31.9651C74.7553 31.7615 75.7953 31.4091 76.5989 30.8922C77.0559 30.5946 77.6468 30.1873 77.7571 29.6469L77.7729 18.4944C77.7807 18.095 77.7965 17.8209 77.5759 17.4841Z" fill="black"/>
<path fill-rule="evenodd" clip-rule="evenodd" d="M62.8507 19.0584C62.378 19.7554 62.0392 20.3349 61.8265 20.797C61.1647 20.006 60.0301 19.4108 58.8168 19.1054C57.0047 18.6511 54.4757 18.7451 53.8375 20.6639C53.5302 21.6037 53.7824 22.4025 54.4363 22.9664C54.8933 23.3658 56.1223 23.8984 57.3278 24.384C59.2344 25.1515 61.8186 25.9033 62.6064 27.9631C63.0398 29.1144 62.9295 30.391 62.2834 31.4169C61.4719 32.717 60.1168 33.3905 58.6671 33.696C57.5011 33.9466 56.2957 33.8135 55.169 33.4532C53.9793 33.0773 52.4824 32.3959 51.403 31.7929C52.1121 30.7199 52.4666 30.1795 52.4666 30.1795C54.0502 31.6284 56.7684 32.576 58.9114 31.8633C60.0301 31.4874 60.9677 30.6259 60.9677 29.4981C60.9756 28.6523 60.5186 28.0258 59.8883 27.5715C59.1477 27.039 57.9423 26.4986 56.9023 26.107C55.7757 25.6762 53.9478 25.1437 52.963 24.2508C52.0412 23.4128 51.6945 22.2459 51.8442 21.0555C52.1278 18.8077 54.003 17.4293 56.146 17.2101C56.9811 17.1239 57.8714 17.2101 58.7302 17.4059C60.2507 17.7739 61.4562 18.424 62.8507 19.0584Z" fill="black"/>
</g>
<defs>
<clipPath id="clip0_1_781">
<rect width="232" height="51" fill="white"/>
</clipPath>
</defs>
</svg>
