<svg width="202" height="50" viewBox="0 0 202 50" fill="none" xmlns="http://www.w3.org/2000/svg">
<g clip-path="url(#clip0_74_148)">
<path d="M16.765 19.3838L16.6458 19.4421L16.6402 19.5747C16.6397 19.6032 16.0922 30.0518 24.6294 35.3872L24.717 35.4431L24.8162 35.41C24.8405 35.3998 33.2644 32.7413 34.9977 20.8671L35.0167 20.7377L34.9084 20.6578C34.8841 20.6408 26.6954 14.5356 16.765 19.3838ZM17.799 48.8111L17.879 48.8358L17.9594 48.861L18.035 48.8271L24.2867 45.9893L22.939 49.6096L22.8378 49.8831L23.1301 49.9071L23.1392 49.9083C23.4192 49.9314 23.7102 49.9501 24.0129 49.9655C24.2987 49.9802 24.5901 49.99 24.889 49.9952C26.3898 50.0222 27.8985 49.9255 29.3747 49.7087L29.4984 49.6907L29.547 49.572L31.6564 44.4324L32.8088 48.6404L32.8687 48.8598L33.0849 48.7958C33.9947 48.5216 34.8928 48.1759 35.7732 47.7767C36.6547 47.3763 37.5177 46.9248 38.3566 46.4346L38.4741 46.3657L38.4654 46.2278L38.0715 40.539L41.2857 44.0742L41.4288 44.2311L41.5921 44.0943C42.3648 43.4387 43.1024 42.7404 43.802 41.9925C44.5005 41.2485 45.1575 40.4563 45.7694 39.6156L45.8418 39.5173L45.797 39.4046L43.643 34.0291L47.6257 36.2565L47.8323 36.3719L47.9336 36.1582C48.4126 35.1566 48.7544 34.3625 49.0383 33.6455C49.3134 32.949 49.5386 32.3033 49.7809 31.6079L49.823 31.4857L49.7388 31.3897C49.7253 31.3759 45.4341 26.4535 37.9305 21.3718L37.6373 21.1736L37.5868 21.5227C37.5775 21.5955 37.5619 21.7068 37.5447 21.8276C37.0002 25.7438 35.3375 37.7027 10.8882 44.7288L10.4799 44.844L10.8091 45.1115C13.8671 47.5958 16.1001 48.2856 17.799 48.8111ZM11.156 4.45052C10.0855 5.1873 9.32518 5.89253 8.66887 6.51689L8.60897 6.57401L8.60098 6.65517L7.94196 13.4582L5.53225 10.4771L5.35043 10.2519L5.18094 10.4885C4.55728 11.3606 3.99917 12.2558 3.50317 13.1805C3.008 14.1042 2.57531 15.0556 2.20334 16.0407L2.15824 16.1547L2.23553 16.253L5.59003 20.6105L1.38283 19.5191L1.1598 19.4592L1.11129 19.6874C0.915501 20.625 0.762227 21.5755 0.663099 22.5301C0.564206 23.4866 0.521454 24.4486 0.544826 25.4102L0.547763 25.5445L0.667445 25.604L5.77747 28.1366L1.08357 29.1537L0.872045 29.1981L0.913388 29.4103C1.10154 30.4052 1.34314 31.394 1.64404 32.3718C1.9439 33.3494 2.30459 34.3155 2.72917 35.2676L2.77838 35.3799L2.90041 35.3971L8.62954 36.1952L4.72617 38.5355L4.52722 38.6548L4.65476 38.8471C5.27445 39.7749 5.79215 40.4792 6.27431 41.0831C6.75232 41.6831 7.2005 42.1902 7.6817 42.7277L7.76733 42.8219L7.88982 42.7974C7.9091 42.7933 14.2648 41.5605 22.4372 37.5846L22.7559 37.4308L22.4772 37.2113C22.3773 37.1344 22.3075 37.0803 22.2346 37.0231C19.1325 34.6089 9.5904 27.1817 15.7734 2.48093L15.8786 2.0649L15.4785 2.22031C13.5991 2.9544 12.2243 3.71673 11.156 4.45052ZM49.9704 19.7397C50.3618 21.4886 50.8757 23.7802 50.2719 27.6933L50.207 28.1166L49.8997 27.8201C31.5767 10.1365 20.3897 14.6868 16.7057 16.1874C16.6408 16.213 16.5997 16.2316 16.4235 16.3014L16.093 16.4351L16.1201 16.0789C16.8155 7.0198 18.9194 0.90485 18.9251 0.886513L18.9658 0.766872L19.0876 0.739521C19.7817 0.59132 20.431 0.454544 21.2006 0.333401C21.9646 0.212555 22.8299 0.108242 23.9468 0.0186615L24.1833 2.28882e-05L24.1854 0.236599L24.2454 4.81395L27.8224 0.280792L27.897 0.183994L28.0169 0.195419C29.5115 0.337605 30.9723 0.614166 32.3801 1.01337C32.6459 1.08612 32.9168 1.16999 33.1958 1.25837C33.4823 1.34975 33.7502 1.44084 33.9998 1.52892L34.0004 1.53072L34.0046 1.53192L34.2052 1.60466L34.1393 1.80698L32.6669 6.37711L37.4064 3.22193L37.5162 3.14949L37.6325 3.21081C38.497 3.66833 39.3166 4.18267 40.0996 4.74571C40.8831 5.30995 41.6285 5.92259 42.3384 6.57821L42.5079 6.73483L42.3453 6.89746L39.288 9.96696L44.76 9.27286L44.8827 9.25723L44.9596 9.35281C45.8881 10.4984 46.7255 11.7484 47.4624 13.0665C47.6086 13.3271 47.7478 13.5866 47.8807 13.843C48.0172 14.1042 48.1489 14.369 48.2764 14.6342H48.2752L48.409 14.8993L48.1125 14.9474L44.2897 15.5775L49.8756 19.5735L49.9442 19.6204L49.9625 19.7057L49.9704 19.7397Z" fill="#D9172A"/>
<path d="M62.9426 12.3084H64.1744C65.1441 12.3084 65.8227 12.1671 66.2169 11.8806C66.6069 11.596 66.8056 11.2295 66.8056 10.7876C66.8056 10.356 66.6345 9.98681 66.293 9.68921C65.9544 9.3868 65.3146 9.23589 64.3753 9.23589H62.9426V12.3084ZM57.8918 6.43723H66.2506C68.069 6.43723 69.4347 6.80157 70.3412 7.53746C71.2447 8.26823 71.7015 9.31285 71.7015 10.6623C71.7015 12.0547 71.2078 13.142 70.2191 13.923C69.2299 14.7054 67.7221 15.0986 65.6952 15.0986H62.9426V20.209H57.8918V6.43723Z" fill="#D9172A"/>
<path d="M72.7998 6.43721H78.2624L80.5148 12.113L82.7355 6.43721H87.8563L82.5167 17.0706C82.0765 17.9303 81.6973 18.5715 81.3714 18.9948C81.0449 19.415 80.5605 19.7625 79.9237 20.0378C79.2823 20.3085 78.4031 20.4441 77.2855 20.4441C76.6947 20.4441 75.6748 20.3742 74.231 20.2286V17.3829C75.084 17.4584 75.7049 17.4941 76.0967 17.4941C77.2597 17.4941 77.9648 17.1277 78.2191 16.3981L72.7998 6.43721Z" fill="#D9172A"/>
<path d="M100.445 14.5828L104.852 15.7113C104.556 16.7562 104.091 17.6279 103.453 18.3305C102.817 19.0333 102.024 19.562 101.082 19.9183C100.137 20.2774 98.937 20.4541 97.4803 20.4541C95.712 20.4541 94.2634 20.2345 93.1464 19.8025C92.024 19.3667 91.0534 18.6001 90.2389 17.5026C89.4282 16.4066 89.0178 15.0045 89.0178 13.2959C89.0178 11.0173 89.7355 9.26295 91.167 8.04008C92.5997 6.8145 94.6275 6.20186 97.2457 6.20186C99.2963 6.20186 100.907 6.55267 102.083 7.25489C103.257 7.95771 104.128 9.03358 104.696 10.4855L100.254 11.3236C100.1 10.9046 99.935 10.5967 99.7666 10.4001C99.4858 10.0767 99.1409 9.82448 98.7362 9.65073C98.3267 9.47367 97.8723 9.38679 97.3678 9.38679C96.2298 9.38679 95.3551 9.77458 94.7493 10.5498C94.2904 11.1285 94.0595 12.0318 94.0595 13.2673C94.0595 14.7965 94.3364 15.8426 94.8819 16.4096C95.4315 16.9768 96.2003 17.2606 97.1889 17.2606C98.1517 17.2606 98.8802 17.0309 99.3733 16.5734C99.8634 16.1177 100.22 15.4537 100.445 14.5828Z" fill="#D9172A"/>
<path d="M118.131 14.5828L122.538 15.7113C122.242 16.7562 121.777 17.6279 121.139 18.3305C120.503 19.0333 119.711 19.562 118.767 19.9183C117.823 20.2774 116.623 20.4541 115.168 20.4541C113.397 20.4541 111.951 20.2345 110.833 19.8025C109.71 19.3667 108.739 18.6001 107.925 17.5026C107.113 16.4066 106.706 15.0045 106.706 13.2959C106.706 11.0173 107.421 9.26295 108.853 8.04008C110.287 6.8145 112.313 6.20186 114.931 6.20186C116.982 6.20186 118.593 6.55267 119.767 7.25489C120.942 7.95771 121.814 9.03358 122.381 10.4855L117.942 11.3236C117.786 10.9046 117.624 10.5967 117.453 10.4001C117.173 10.0767 116.827 9.82448 116.421 9.65073C116.011 9.47367 115.557 9.38679 115.054 9.38679C113.918 9.38679 113.043 9.77458 112.434 10.5498C111.976 11.1285 111.745 12.0318 111.745 13.2673C111.745 14.7965 112.022 15.8426 112.568 16.4096C113.117 16.9768 113.886 17.2606 114.876 17.2606C115.838 17.2606 116.566 17.0309 117.058 16.5734C117.55 16.1177 117.907 15.4537 118.131 14.5828Z" fill="#D9172A"/>
<path d="M139.78 20.209H134.12L132.163 16.6504C131.698 15.8111 131.333 15.2838 131.076 15.0758C130.817 14.8651 130.459 14.7607 130 14.7607V20.209H124.979V6.43724H130V11.7255C130.436 11.7084 130.777 11.5785 131.02 11.3308C131.265 11.0867 131.644 10.3872 132.163 9.22597C132.543 8.36924 132.922 7.7539 133.309 7.38325C133.692 7.00719 134.316 6.74205 135.184 6.57672C136.048 6.41409 137.408 6.33293 139.258 6.33293V9.24581H139.003C138.143 9.24581 137.508 9.38409 137.094 9.66065C136.678 9.9357 136.34 10.3815 136.071 10.9974C135.806 11.6155 135.518 12.0745 135.21 12.3796C134.904 12.6833 134.483 12.9267 133.953 13.1062C134.677 13.3088 135.31 13.6548 135.851 14.1451C136.39 14.6354 136.965 15.4022 137.572 16.4411L139.78 20.209Z" fill="#D9172A"/>
<path d="M150.539 14.9558L148.739 10.0054L146.951 14.9558H150.539ZM151.593 17.9373H145.863L145.077 20.209H139.937L146.053 6.43723H151.536L157.657 20.209H152.391L151.593 17.9373Z" fill="#D9172A"/>
<path d="M168.601 12.0162H166.479C166.252 12.0162 165.809 11.9549 165.149 11.8295C164.815 11.7724 164.541 11.6287 164.33 11.3979C164.122 11.1667 164.015 10.9004 164.015 10.5982C164.015 10.1521 164.182 9.81306 164.517 9.57648C164.849 9.33569 165.474 9.21605 166.391 9.21605H168.601V12.0162ZM173.652 20.209V6.43723H165.27C163.717 6.43723 162.526 6.54846 161.708 6.77752C160.887 6.99967 160.223 7.41902 159.718 8.03015C159.213 8.63888 158.964 9.38409 158.964 10.2589C158.964 11.0257 159.156 11.6843 159.54 12.2384C159.926 12.7927 160.456 13.2418 161.129 13.5866C161.559 13.806 162.147 13.9885 162.894 14.1295C162.295 14.299 161.859 14.4701 161.582 14.6399C161.401 14.7523 161.132 14.9928 160.78 15.3623C160.427 15.7326 160.191 16.0149 160.074 16.2172L157.643 20.209H163.327L166.012 15.9977C166.353 15.4576 166.656 15.1016 166.926 14.939C167.287 14.7268 167.697 14.6183 168.156 14.6183H168.601V20.209H173.652Z" fill="#D9172A"/>
<path d="M57.8918 28.2705H64.5079L67.0621 36.6494L69.6058 28.2705H76.1995V42.0421H72.0917V31.541L68.9043 42.0421H65.1871L62.0105 31.541V42.0421H57.8918V28.2705Z" fill="#D9172A"/>
<path d="M79.3972 28.2705H92.874V31.2121H84.4374V33.4023H92.2627V36.2108H84.4374V38.9242H93.1202V42.0421H79.3972V28.2705Z" fill="#D9172A"/>
<path d="M94.708 28.2705H100.244L103.132 32.507L105.929 28.2705H111.415L106.353 34.9396L111.894 42.0421H106.244L103.034 37.6186L99.8123 42.0421H94.1963L99.8123 34.8672L94.708 28.2705Z" fill="#D9172A"/>
<path d="M122.474 36.7907L120.674 31.8401L118.887 36.7907H122.474ZM123.528 39.7707H117.798L117.009 42.0421H111.871L117.987 28.2705H123.471L129.591 42.0421H124.329L123.528 39.7707Z" fill="#D9172A"/>
<path d="M131.222 28.2705H136.249V33.0899H141.749V28.2705H146.8V42.0421H141.749V36.4745H136.249V42.0421H131.222V28.2705Z" fill="#D9172A"/>
<path d="M165.717 28.2705V42.0421H160.988V34.4808L154.892 42.0421H150.151V28.2705H154.892V35.8886L161.022 28.2705H165.717Z" fill="#D9172A"/>
<path d="M183.881 42.0421H178.219L176.264 38.4837C175.798 37.6445 175.434 37.1172 175.176 36.9107C174.915 36.6982 174.559 36.5957 174.1 36.5957V42.0421H169.08V28.2705H174.1V33.5589C174.536 33.5418 174.877 33.4123 175.119 33.1639C175.365 32.9204 175.745 32.2206 176.264 31.0593C176.643 30.2026 177.022 29.5886 177.409 29.2166C177.792 28.8402 178.416 28.5754 179.284 28.4117C180.149 28.2476 181.509 28.1665 183.359 28.1665V31.0791H183.104C182.245 31.0791 181.609 31.2175 181.194 31.494C180.776 31.7688 180.44 32.2152 180.171 32.829C179.907 33.4491 179.618 33.9076 179.311 34.213C179.003 34.5178 178.584 34.7616 178.053 34.9396C178.777 35.1422 179.411 35.4897 179.953 35.98C180.488 36.4702 181.064 37.2368 181.673 38.276L183.881 42.0421Z" fill="#D9172A"/>
<path d="M194.64 36.7907L192.841 31.8401L191.051 36.7907H194.64ZM195.693 39.7707H189.964L189.175 42.0421H184.038L190.153 28.2705H195.638L201.758 42.0421H196.493L195.693 39.7707Z" fill="#D9172A"/>
</g>
<defs>
<clipPath id="clip0_74_148">
<rect width="201.22" height="50" fill="white" transform="translate(0.538574)"/>
</clipPath>
</defs>
</svg>
