<svg width="182" height="50" viewBox="0 0 182 50" fill="none" xmlns="http://www.w3.org/2000/svg">
<path d="M39.4719 5.59393C39.4719 5.59393 38.4931 7.42687 38.1784 7.99778C37.5292 9.21473 24.5501 34.0995 24.5051 34.1797C24.615 34.1897 24.7598 34.1997 24.9446 34.1997H33.1696C33.2345 34.1997 33.3493 34.1997 33.4292 34.1997C33.8437 33.5186 40.5705 20.4377 41.4744 18.8802C41.6592 18.5497 41.7241 18.164 41.6542 17.7884L39.4719 5.59393Z" fill="#14387F"/>
<path d="M50.3636 0.245372C50.3236 0.220332 50.2837 0.205308 50.2387 0.205308C47.7867 0.165244 47.572 0.160236 42.9326 0.180268C42.6779 0.190285 42.4482 0.3255 42.3134 0.545853L42.2884 0.585917C42.1885 0.75619 42.1486 0.951503 42.1736 1.14681L46.2785 24.0885C46.6032 25.8964 46.9477 27.7243 47.2873 29.5072C47.4971 30.624 47.7068 31.7408 47.9166 32.8575C47.9515 33.0378 47.9815 33.2231 48.0114 33.4034C48.0564 33.6839 48.1013 33.9493 48.1563 34.2047C48.2511 34.2047 48.366 34.2047 48.4409 34.2047H48.6457L55.4723 34.1797C55.5422 34.1797 55.6172 34.1797 55.6871 34.1797C55.762 34.1797 55.8319 34.1797 55.8768 34.1797C55.9617 34.1246 56.0416 34.0595 56.1165 33.9894C56.1016 33.4836 56.0516 32.9777 55.9617 32.4819C55.712 30.8994 50.8779 3.0148 50.3636 0.22534" fill="#14387F"/>
<path d="M68.2667 22.8666L68.2267 22.8365C67.9321 22.6613 67.7174 22.3808 67.6275 22.0503C67.5576 21.7698 67.6075 21.4694 67.7673 21.224C68.0719 20.7282 68.6213 20.7232 68.8859 20.7232L69.9996 20.7332C71.1682 20.7432 75.3131 20.7632 76.1071 20.7632C77.9898 20.7833 79.8426 20.3375 81.5155 19.4712C84.4919 17.8786 86.3946 16.0857 87.0787 11.9541C87.678 8.34335 86.8091 4.55229 84.3371 2.14343C83.1336 0.971559 81.7353 0.130212 80.4968 0.120197C76.3269 0.0751249 74.9535 0.0751249 70.8086 0.0801329C68.6113 0.0801329 65.4551 0.0801329 63.1879 0.0801329C62.7235 0.0801329 62.7185 0.140229 62.6685 0.435702C62.4738 1.65265 61.6448 6.4353 61.6448 6.4353C61.6448 6.4353 73.0259 6.41026 76.1171 6.48037C76.6764 6.4954 77.2308 6.59055 77.7651 6.75581L77.835 6.78586C79.3781 7.44692 80.2271 8.70894 79.9225 10.3816C79.5429 12.485 77.4854 14.1527 75.2382 14.1877C72.6863 14.2127 62.1192 14.2178 62.0143 14.2178H61.9644C60.5761 14.2178 60.641 14.7236 60.5012 15.2544L60.2764 16.5264L59.0729 23.1721C58.8632 24.364 58.8632 24.364 60.1166 25.3806C63.3277 27.9998 67.8073 31.4804 70.0995 33.138L70.8436 33.6839C71.5677 34.2198 71.6126 34.2348 71.7275 34.2348H83.1286C83.1535 34.2348 68.3466 22.9217 68.2667 22.8666Z" fill="#14387F"/>
<path d="M28.2206 2.6693C27.2517 1.55752 25.4489 0.19033 21.9782 0.19033C20.47 0.19033 9.54835 0.160281 7.2911 0.155273H7.27612C6.83166 0.155273 6.81668 0.21537 6.77174 0.505834C6.57198 1.72278 6.34726 2.95475 6.12752 4.14165C6.01766 4.71256 5.84287 5.45876 5.74299 6.03468L5.68806 6.37522C5.83788 6.37522 6.01266 6.37522 6.14251 6.37522C7.34104 6.37522 8.54457 6.37522 9.74811 6.37522C12.8094 6.37522 16.5948 6.35519 19.7109 6.4253C20.2653 6.43532 20.8196 6.53047 21.3539 6.69574L21.4239 6.72579C22.957 7.35179 23.8259 8.98941 23.5013 10.622C23.1168 12.7554 21.1042 14.2578 18.837 14.2578L18.7721 14.2779H5.39342C4.33471 14.2779 4.18989 14.8788 4.1 15.2795L4.08002 15.4047L2.42704 24.5142C2.27223 25.3856 2.11242 26.257 1.95761 27.1284C1.54811 29.4121 1.12363 31.7759 0.669185 34.0996C0.654203 34.1797 0.644215 34.2498 0.639221 34.3049C0.704142 34.3049 0.789039 34.3149 0.903898 34.3049C3.6056 34.2548 4.45956 34.2548 7.31607 34.3049C7.99025 34.3199 8.0352 34.1947 8.12509 33.6739C8.45968 31.7158 8.81924 29.7226 9.17381 27.7945C9.48842 26.0617 9.81303 24.2689 10.1177 22.506C10.3374 21.254 11.0365 20.6881 12.325 20.7232C14.0628 20.7783 15.8656 20.7783 17.6834 20.7232C19.3664 20.6781 23.1218 20.5128 24.8247 19.6014C27.9359 17.9387 29.9834 15.7202 30.6726 12.0693C31.2569 8.95936 30.328 5.09818 28.2156 2.66429" fill="#14387F"/>
<path d="M174.917 0.260394C169.633 0.210313 164.819 0.22033 159.605 0.230347L154.197 0.240362C153.927 0.240362 153.423 0.240362 153.318 0.295451C153.243 0.55086 153.183 0.811275 153.138 1.07169L149.378 21.86C148.639 25.8864 147.91 29.9128 147.19 33.9443C147.17 34.0495 147.14 34.2097 147.12 34.3549C147.31 34.36 147.545 34.36 147.715 34.36C150.222 34.37 152.734 34.37 155.251 34.36C155.525 34.36 156.045 34.36 156.149 34.2999C156.224 34.0545 156.279 33.7991 156.319 33.5436L160.474 10.637C160.519 10.3766 160.569 10.1162 160.619 9.85575C160.719 9.30987 160.824 8.764 160.914 8.21813C161.068 7.21652 161.678 6.69068 162.672 6.69068H162.691C163.805 6.69068 164.349 6.7007 165.463 6.70571C166.572 6.71071 167.65 6.70571 168.744 6.72073C169.833 6.73575 170.737 7.25659 171.386 8.28323C172.17 9.52522 172.06 10.8924 171.83 12.1795C171.011 16.6967 170.197 21.2089 169.373 25.7211L167.865 34.0595C167.85 34.1296 167.83 34.2448 167.81 34.365H168.21C170.367 34.365 172.519 34.365 174.677 34.365H175.236C175.536 34.375 175.83 34.36 176.13 34.3299C176.195 34.0845 176.25 33.8341 176.29 33.5787C176.704 31.29 177.119 29.0014 177.528 26.7127C178.557 21.0186 179.616 15.1342 180.719 9.33992C181.139 7.33672 180.859 5.24337 179.93 3.42045C178.877 1.31709 177.234 0.280426 174.917 0.260394Z" fill="#14387F"/>
<path d="M146.786 0.215344C145.078 0.250399 143.345 0.245391 141.677 0.240384C140.928 0.240384 140.184 0.240384 139.435 0.240384C138.92 0.240384 138.386 0.240384 138.271 0.305488C138.171 0.615985 138.101 0.936498 138.056 1.26202L136.219 11.3932C135.335 16.281 134.446 21.1639 133.562 26.0517C133.287 27.5491 132.918 27.8546 131.35 27.8596C130.246 27.8596 130.955 27.8596 129.856 27.8596C128.988 27.8596 128.119 27.8596 127.245 27.8596H127.24C125.617 27.8596 124.388 27.0583 123.964 25.7161C123.649 24.6945 123.574 23.6128 123.759 22.5561C124.898 16.0206 126.166 9.00441 127.749 0.485776C127.769 0.3756 127.779 0.30048 127.784 0.235376C127.669 0.225359 127.554 0.220352 127.439 0.220352C125.806 0.255408 124.163 0.245391 122.57 0.240384C121.781 0.240384 120.987 0.240384 120.193 0.240384C119.904 0.230368 119.609 0.245391 119.319 0.285456C119.239 0.535857 119.18 0.796273 119.14 1.05669C118.745 3.26022 118.346 5.46374 117.951 7.66226C116.967 13.0909 115.953 18.725 114.925 24.2488C114.54 26.3021 114.565 27.9798 115.005 29.5222C115.909 32.6873 118.231 34.36 121.726 34.36H121.756C126.266 34.345 128.953 34.36 133.447 34.36H140.119C140.369 34.365 140.618 34.355 140.868 34.3299C140.923 34.1296 140.963 33.9293 140.998 33.724C141.747 29.5923 142.501 25.4607 143.245 21.3241L144.763 12.9407C145.507 8.82913 146.276 4.57732 147.061 0.395632C147.075 0.32552 147.085 0.270432 147.09 0.225359C146.991 0.215344 146.886 0.210335 146.786 0.215344Z" fill="#14387F"/>
<path d="M109.412 15.5098C108.173 13.5867 106.74 11.7137 105.356 9.90584C104.602 8.92427 104.473 8.90924 103.733 7.89262C103.314 7.34674 102.999 6.73076 102.81 6.07471C101.137 7.40183 99.6884 9.07451 99.2639 11.0777C98.9743 12.4399 99.204 13.8822 99.9431 15.3746C100.982 16.8019 101.386 17.2576 102.37 18.73C103.399 20.2574 103.389 21.7448 103.064 23.3223C102.49 26.0767 100.772 26.7528 96.8718 26.878C94.8293 26.9431 92.7868 26.9581 90.7093 26.9581L84.6867 34.3249C84.6867 34.3399 84.6867 34.36 84.6767 34.375C84.7516 34.38 84.8215 34.38 84.8964 34.375C86.7092 34.3499 88.547 34.355 90.3248 34.36C91.0439 34.36 91.7531 34.36 92.4572 34.36C93.1613 34.36 93.8905 34.36 94.6046 34.375C96.2875 34.395 98.0304 34.41 99.7433 34.3199C100.992 34.2598 102.22 33.9944 103.384 33.5336C106.765 32.1514 108.328 31.0897 109.926 27.4589C111.144 24.6845 111.754 19.1306 109.417 15.4998" fill="#C81C1B"/>
<path d="M96.657 10.7522C96.672 10.3265 96.7269 9.90583 96.8168 9.49518C97.8705 4.54726 103.614 1.49237 106.53 0.220337H100.962C98.1152 0.220337 96.4023 0.230354 94.4497 0.220337C93.9553 0.220337 93.9104 0.345537 93.8654 0.656034C93.7805 1.23696 93.6707 1.81789 93.5708 2.37879C93.4759 2.86958 93.386 3.36036 93.3061 3.85615C93.1014 5.14822 93.3211 6.21993 93.9753 7.09634C94.9641 8.42847 95.843 9.62538 96.657 10.7472" fill="#C81C1B"/>
<path d="M41.1997 44.8818C41.8989 44.8818 42.4482 44.7466 42.8377 44.4461C43.2372 44.1256 43.5119 43.6649 43.5968 43.1541C43.7167 42.5982 43.6418 42.1675 43.3771 41.872C43.1124 41.5766 42.633 41.4313 41.9238 41.4313H39.4918L38.7677 44.8868L41.1997 44.8818ZM42.5681 40.3796C43.5069 40.3796 44.1661 40.62 44.5506 41.1058C44.9302 41.5916 45.0251 42.2777 44.8403 43.1541C44.7005 43.9504 44.291 44.6765 43.6817 45.2074C43.0974 45.6981 42.3383 45.9385 41.3995 45.9335H38.543L37.729 49.7797H36.4905L38.4731 40.3796H42.5681Z" fill="#14387F"/>
<path d="M46.2186 47.481C46.2485 47.7664 46.3434 48.0419 46.5032 48.2822C46.6431 48.4976 46.8378 48.6679 47.0675 48.778C47.3122 48.8932 47.5769 48.9533 47.8466 48.9483C48.1412 48.9483 48.4309 48.8882 48.7006 48.778C48.9852 48.6578 49.2499 48.4926 49.4746 48.2822C49.7243 48.0519 49.934 47.7814 50.0939 47.481C50.2786 47.1354 50.4135 46.7698 50.4884 46.3892C50.5733 46.0336 50.5982 45.6631 50.5583 45.2975C50.5283 45.012 50.4334 44.7316 50.2786 44.4912C50.1388 44.2758 49.944 44.1006 49.7143 43.9904C49.4696 43.8702 49.1999 43.8151 48.9303 43.8201C48.6406 43.8201 48.351 43.8752 48.0813 43.9904C47.7967 44.1056 47.532 44.2758 47.3073 44.4912C47.0576 44.7215 46.8478 44.997 46.683 45.2975C46.4982 45.638 46.3634 46.0086 46.2885 46.3892C46.2036 46.7448 46.1836 47.1154 46.2186 47.481ZM45.6193 44.982C45.839 44.5563 46.1337 44.1707 46.4833 43.8451C46.8328 43.5246 47.2373 43.2692 47.6768 43.0889C48.1412 42.9036 48.6406 42.8085 49.14 42.8135C49.6094 42.7985 50.0739 42.8936 50.4984 43.0889C50.8479 43.2592 51.1476 43.5196 51.3623 43.8451C51.582 44.1907 51.7119 44.5763 51.7518 44.982C51.7968 45.4477 51.7668 45.9235 51.6619 46.3842C51.5621 46.87 51.3923 47.3407 51.1625 47.7764C50.9378 48.1971 50.6482 48.5777 50.2986 48.9032C49.949 49.2237 49.5495 49.4741 49.115 49.6544C48.6456 49.8347 48.1462 49.9299 47.6418 49.9199C47.1774 49.9349 46.713 49.8447 46.2885 49.6544C45.9389 49.4892 45.6343 49.2288 45.4196 48.9032C45.1998 48.5627 45.065 48.1771 45.03 47.7764C44.9801 47.3107 45.0101 46.8399 45.1149 46.3842C45.2148 45.8934 45.3846 45.4227 45.6193 44.982Z" fill="#14387F"/>
<path d="M57.7595 49.7796L57.5298 44.366H57.5049L55.0079 49.7796H53.8044L53.0753 42.9738H54.2988L54.6533 48.5377H54.6783L57.2102 42.9738H58.4237L58.6584 48.5377H58.6834L61.3751 42.9738H62.5237L58.9331 49.7796H57.7595Z" fill="#14387F"/>
<path d="M67.6675 44.972C67.6225 44.7516 67.5276 44.5413 67.3878 44.366C67.253 44.1907 67.0782 44.0505 66.8734 43.9554C66.6437 43.8502 66.394 43.8001 66.1443 43.8051C65.8697 43.8001 65.595 43.8552 65.3353 43.9554C65.0856 44.0555 64.8559 44.1957 64.6561 44.371C64.4514 44.5463 64.2766 44.7516 64.1318 44.982C63.9919 45.2124 63.8821 45.4628 63.8072 45.7232H67.6824C67.7224 45.4778 67.7174 45.2224 67.6675 44.977M67.0133 49.339C66.409 49.7296 65.7099 49.9349 64.9907 49.9199C64.5313 49.9399 64.0669 49.8498 63.6474 49.6595C63.3028 49.4942 63.0081 49.2438 62.8034 48.9233C62.5937 48.5778 62.4688 48.1921 62.4438 47.7915C62.3989 47.3107 62.4239 46.825 62.5138 46.3542C62.6186 45.8534 62.8034 45.3726 63.0581 44.9319C63.2978 44.5163 63.6024 44.1356 63.957 43.8151C64.3016 43.5046 64.6911 43.2592 65.1156 43.089C65.5401 42.9137 65.9895 42.8235 66.444 42.8235C67.0482 42.8235 67.5176 42.9487 67.8622 43.1991C68.1968 43.4395 68.4565 43.7701 68.6113 44.1507C68.7711 44.5563 68.851 44.992 68.841 45.4277C68.836 45.8634 68.7811 46.3041 68.6762 46.7298H63.6274C63.5575 47.0052 63.5325 47.2907 63.5575 47.5762C63.5725 47.8316 63.6524 48.077 63.7822 48.2873C63.922 48.5026 64.1168 48.6729 64.3465 48.7831C64.6312 48.9133 64.9458 48.9734 65.2604 48.9634C65.6899 48.9734 66.1144 48.8582 66.4839 48.6328C66.8485 48.3925 67.1281 48.0419 67.2879 47.6362H68.3816C68.1119 48.3324 67.6325 48.9283 67.0133 49.344V49.339Z" fill="#14387F"/>
<path d="M71.5926 42.9738L71.288 44.4061H71.313C71.6376 43.9153 72.067 43.4946 72.5664 43.1841C73.0409 42.9137 73.5852 42.7885 74.1295 42.8185L73.8798 44.0004C73.4803 43.9904 73.0858 44.0505 72.7063 44.1807C72.3817 44.2959 72.082 44.4862 71.8323 44.7266C71.5826 44.977 71.3829 45.2674 71.2331 45.588C71.0683 45.9636 70.9384 46.3542 70.8585 46.7548L70.2193 49.7797H69.1107L70.5539 42.9738H71.5926Z" fill="#14387F"/>
<path d="M81.156 49.7797H79.9175L80.7265 45.9335L78.2994 40.3796H79.7726L81.6204 44.8568L85.2909 40.3796H86.6992L81.965 45.9335L81.156 49.7797Z" fill="#14387F"/>
<path d="M85.5855 47.481C85.6155 47.7664 85.7104 48.0419 85.8702 48.2822C86.01 48.4976 86.2048 48.6679 86.4345 48.778C86.6792 48.8932 86.9439 48.9533 87.2135 48.9483C87.5082 48.9483 87.7978 48.8882 88.0675 48.778C88.3521 48.6578 88.6168 48.4926 88.8416 48.2822C89.0912 48.0519 89.301 47.7814 89.4608 47.481C89.6456 47.1404 89.7804 46.7698 89.8553 46.3892C89.9402 46.0336 89.9652 45.6631 89.9252 45.2975C89.8953 45.012 89.8004 44.7316 89.6456 44.4912C89.5057 44.2758 89.311 44.1006 89.0813 43.9904C88.8366 43.8702 88.5719 43.8151 88.3022 43.8201C88.0076 43.8201 87.7179 43.8752 87.4483 43.9904C87.1636 44.1056 86.8989 44.2758 86.6742 44.4912C86.4245 44.7215 86.2148 44.997 86.05 45.2975C85.8652 45.638 85.7353 46.0086 85.6554 46.3892C85.5705 46.7448 85.5506 47.1154 85.5855 47.481ZM84.9863 44.982C85.211 44.5563 85.5006 44.1707 85.8502 43.8451C86.1998 43.5246 86.6043 43.2692 87.0437 43.0889C87.5082 42.9036 88.0076 42.8085 88.507 42.8135C88.9764 42.7985 89.4408 42.8936 89.8703 43.0889C90.2199 43.2592 90.5145 43.5196 90.7342 43.8451C90.949 44.1857 91.0838 44.5763 91.1188 44.982C91.1637 45.4477 91.1387 45.9235 91.0339 46.3842C90.934 46.87 90.7642 47.3357 90.5295 47.7764C90.3098 48.1971 90.0151 48.5777 89.6655 48.9032C89.321 49.2237 88.9215 49.4792 88.482 49.6544C88.0126 49.8347 87.5132 49.9299 87.0088 49.9199C86.5444 49.9349 86.0849 49.8447 85.6604 49.6544C85.3059 49.4892 85.0012 49.2338 84.7865 48.9082C84.5668 48.5727 84.4319 48.1871 84.397 47.7814C84.347 47.3157 84.377 46.8449 84.4819 46.3892C84.5818 45.8984 84.7515 45.4227 84.9863 44.982Z" fill="#14387F"/>
<path d="M96.1627 49.7797L96.3874 48.6979H96.3574C95.7881 49.4892 94.8742 49.9449 93.9054 49.9199C93.5408 49.9349 93.1763 49.8698 92.8367 49.7396C92.587 49.6394 92.3723 49.4591 92.2225 49.2288C92.0826 48.9934 92.0077 48.723 92.0027 48.4475C91.9977 48.112 92.0327 47.7714 92.1076 47.4409L93.0514 42.9688H94.1601L93.1863 47.5761C93.0964 47.9968 93.1513 48.3273 93.3411 48.5727C93.5309 48.8181 93.8405 48.9383 94.27 48.9383C94.5796 48.9433 94.8892 48.8882 95.1838 48.7831C95.4485 48.6779 95.6932 48.5276 95.903 48.3323C96.1077 48.137 96.2825 47.9117 96.4173 47.6563C96.5572 47.3908 96.657 47.1004 96.722 46.8049L97.531 42.9637H98.6396L97.2014 49.7696L96.1627 49.7797Z" fill="#14387F"/>
<path d="M101.316 42.9738L101.012 44.4061H101.042C101.366 43.9153 101.796 43.4946 102.295 43.1841C102.77 42.9137 103.314 42.7885 103.858 42.8185L103.604 44.0004C103.204 43.9904 102.81 44.0555 102.43 44.1807C102.105 44.2959 101.806 44.4862 101.561 44.7266C101.311 44.977 101.107 45.2674 100.962 45.588C100.792 45.9636 100.662 46.3542 100.582 46.7548L99.9431 49.7797H98.8344L100.278 42.9788L101.316 42.9738Z" fill="#14387F"/>
<path d="M110.555 48.728C110.695 48.728 110.87 48.718 111.084 48.6929C111.319 48.6679 111.554 48.6128 111.779 48.5377C112.053 48.4475 112.313 48.3223 112.558 48.1721C112.837 47.9968 113.092 47.7815 113.312 47.5311C113.576 47.2206 113.801 46.875 113.976 46.5094C114.201 46.0387 114.365 45.5379 114.465 45.0271C114.58 44.5313 114.63 44.0255 114.62 43.5197C114.615 43.124 114.515 42.7334 114.326 42.3878C114.136 42.0723 113.851 41.8219 113.517 41.6767C113.072 41.5014 112.598 41.4163 112.118 41.4363H110.031L108.493 48.728H110.555ZM112.208 40.3846C113.651 40.3846 114.68 40.7502 115.289 41.4914C115.904 42.2276 116.053 43.3494 115.739 44.8568C115.594 45.588 115.359 46.2891 115.04 46.9602C114.755 47.5361 114.37 48.0569 113.906 48.4976C113.442 48.9183 112.897 49.2438 112.308 49.4542C111.639 49.6795 110.935 49.7897 110.226 49.7797H107.029L109.012 40.3846H112.208Z" fill="#14387F"/>
<path d="M118.475 42.9738L118.171 44.4061H118.196C118.52 43.9153 118.945 43.4946 119.444 43.1841C119.924 42.9137 120.468 42.7885 121.012 42.8185L120.763 44.0004C120.363 43.9904 119.969 44.0555 119.589 44.1807C119.264 44.2959 118.965 44.4862 118.72 44.7266C118.47 44.977 118.266 45.2674 118.116 45.588C117.951 45.9636 117.821 46.3542 117.741 46.7548L117.102 49.7797H115.993L117.437 42.9788L118.475 42.9738Z" fill="#14387F"/>
<path d="M125.667 44.972C125.622 44.7516 125.527 44.5413 125.392 44.361C125.252 44.1857 125.077 44.0455 124.878 43.9504C124.648 43.8502 124.398 43.7951 124.143 43.8001C123.869 43.8001 123.594 43.8502 123.334 43.9504C123.09 44.0505 122.86 44.1907 122.655 44.366C122.451 44.5463 122.276 44.7516 122.136 44.982C121.991 45.2124 121.881 45.4628 121.806 45.7232H125.682C125.722 45.4728 125.717 45.2224 125.667 44.972ZM125.012 49.334C124.408 49.7296 123.704 49.9299 122.985 49.9149C122.52 49.9299 122.061 49.8398 121.637 49.6545C121.292 49.4892 121.002 49.2338 120.793 48.9183C120.583 48.5727 120.463 48.1871 120.433 47.7815C120.393 47.3057 120.418 46.8199 120.508 46.3492C120.613 45.8484 120.793 45.3676 121.047 44.9269C121.287 44.5113 121.592 44.1306 121.951 43.8101C122.291 43.4996 122.685 43.2542 123.11 43.084C123.529 42.9087 123.984 42.8185 124.438 42.8185C125.037 42.8185 125.507 42.9437 125.851 43.1941C126.186 43.4345 126.446 43.7651 126.605 44.1457C126.765 44.5513 126.84 44.982 126.83 45.4177C126.83 45.8584 126.775 46.2991 126.67 46.7248H121.592C121.527 47.0002 121.502 47.2857 121.522 47.5711C121.537 47.8266 121.617 48.0719 121.746 48.2823C121.891 48.4926 122.086 48.6579 122.316 48.7631C122.6 48.8933 122.915 48.9584 123.23 48.9433C123.659 48.9584 124.084 48.8432 124.453 48.6178C124.818 48.3774 125.097 48.0269 125.257 47.6162H126.356C126.096 48.3173 125.632 48.9183 125.017 49.344L125.012 49.334Z" fill="#14387F"/>
<path d="M132.069 46.249C131.889 46.3642 131.684 46.4393 131.475 46.4793C131.24 46.5294 130.99 46.5695 130.74 46.5995C130.486 46.6296 130.226 46.6646 129.966 46.7047C129.717 46.7398 129.477 46.8049 129.242 46.895C129.033 46.9801 128.838 47.1104 128.678 47.2706C128.508 47.4559 128.393 47.6863 128.348 47.9367C128.308 48.0919 128.313 48.2522 128.358 48.4074C128.403 48.5276 128.478 48.6328 128.583 48.7129C128.693 48.7981 128.823 48.8581 128.958 48.8832C129.117 48.9233 129.277 48.9383 129.442 48.9383C129.772 48.9433 130.101 48.8932 130.416 48.788C130.671 48.6979 130.915 48.5677 131.135 48.4074C131.32 48.2672 131.48 48.0969 131.609 47.9066C131.714 47.7514 131.789 47.5811 131.829 47.3958L132.069 46.249ZM133.133 49.7496C132.873 49.8748 132.588 49.9349 132.299 49.9198C132.064 49.9449 131.829 49.8547 131.664 49.6795C131.529 49.5142 131.5 49.2488 131.579 48.8832C131.225 49.2287 130.81 49.5042 130.346 49.6795C129.911 49.8397 129.447 49.9249 128.983 49.9198C128.698 49.9249 128.413 49.8898 128.139 49.8147C127.904 49.7596 127.684 49.6444 127.499 49.4892C127.32 49.3339 127.195 49.1286 127.135 48.9032C127.07 48.6128 127.075 48.3123 127.145 48.0268C127.255 47.3858 127.634 46.8199 128.184 46.4793C128.433 46.3241 128.703 46.2089 128.988 46.1288C129.277 46.0537 129.572 45.9886 129.871 45.9335C130.171 45.8834 130.486 45.8283 130.77 45.7983C131.025 45.7682 131.275 45.7281 131.524 45.663C131.719 45.618 131.904 45.5328 132.064 45.4126C132.214 45.2975 132.319 45.1222 132.348 44.9319C132.403 44.7366 132.398 44.5312 132.338 44.3409C132.284 44.2007 132.184 44.0805 132.054 44.0004C131.919 43.9152 131.764 43.8602 131.609 43.8401C131.435 43.8151 131.26 43.8001 131.085 43.8001C130.661 43.79 130.236 43.8852 129.857 44.0705C129.507 44.2508 129.267 44.5913 129.132 45.0921H128.024C128.114 44.7065 128.278 44.3459 128.508 44.0254C128.723 43.745 128.983 43.5046 129.287 43.3243C129.587 43.139 129.916 43.0088 130.261 42.9337C130.621 42.8535 130.99 42.8135 131.36 42.8135C131.664 42.8135 131.964 42.8335 132.264 42.8786C132.533 42.9186 132.788 43.0088 133.023 43.149C133.232 43.2842 133.397 43.4846 133.487 43.7199C133.587 44.0304 133.592 44.366 133.507 44.6815L132.768 48.1821C132.723 48.3724 132.698 48.5627 132.693 48.758C132.693 48.8832 132.788 48.9433 132.963 48.9433C133.083 48.9383 133.207 48.9182 133.322 48.8782L133.133 49.7496Z" fill="#14387F"/>
<path d="M136.638 42.9738L136.428 43.9703H136.453C137.043 43.2392 137.937 42.8135 138.875 42.8135C139.25 42.8035 139.625 42.8936 139.959 43.0789C140.269 43.2692 140.469 43.6048 140.484 43.9703C140.778 43.6098 141.148 43.3193 141.567 43.114C141.967 42.9187 142.406 42.8135 142.851 42.8135C143.155 42.8085 143.455 42.8486 143.75 42.9237C143.984 42.9888 144.204 43.109 144.379 43.2742C144.549 43.4395 144.663 43.6548 144.708 43.8852C144.763 44.1907 144.753 44.5012 144.683 44.7967L143.63 49.7847H142.506L143.445 45.3225C143.485 45.1272 143.51 44.9319 143.52 44.7316C143.525 44.5663 143.495 44.401 143.425 44.2508C143.35 44.1106 143.235 43.9954 143.095 43.9253C142.896 43.8401 142.676 43.8001 142.461 43.8101C141.957 43.7951 141.462 43.9603 141.068 44.2859C140.683 44.6064 140.424 45.0521 140.334 45.5479L139.43 49.7847H138.321L139.265 45.3225C139.305 45.1222 139.33 44.9219 139.33 44.7165C139.335 44.5513 139.3 44.386 139.23 44.2358C139.16 44.1006 139.05 43.9854 138.915 43.9203C138.726 43.8351 138.521 43.8001 138.316 43.8101C138.017 43.8051 137.727 43.8702 137.457 44.0004C137.213 44.1206 136.988 44.2808 136.793 44.4762C136.623 44.6414 136.478 44.8367 136.359 45.0471C136.274 45.2023 136.204 45.3676 136.159 45.5429L135.255 49.7796H134.156L135.599 42.9738H136.638Z" fill="#14387F"/>
<path d="M0.65918 44.5212H33.5041V45.8583H0.65918V44.5212Z" fill="#14387F" stroke="#14387F" stroke-width="0.0806028" stroke-miterlimit="22.93"/>
<path d="M147.915 45.7782H179.766V47.1153H147.915V45.7782Z" fill="#14387F" stroke="#14387F" stroke-width="0.0806028" stroke-miterlimit="22.93"/>
</svg>
