<svg width="171" height="85" viewBox="0 0 171 85" fill="none" xmlns="http://www.w3.org/2000/svg">
<g clip-path="url(#clip0_74_120)">
<path d="M90.2753 32.1656V40.1748H64.2226L72.3805 32.1656H90.2753ZM90.2753 0H61.5911V39.9164L69.749 31.9073V8.00912H90.2753V0Z" fill="#393939"/>
<path d="M109.486 0H101.328V32.1656L92.2489 40.1748H109.486V0Z" fill="#393939"/>
<path d="M10.5658 81.3829L4.79253 71.5653H0.538452L8.43872 85H170.538V81.3829H10.5658Z" fill="#393939"/>
<path d="M160.511 51.8009L166.284 61.6186H170.538L162.638 48.1839H0.538452V51.8009H160.511Z" fill="#393939"/>
<path d="M38.1239 58.1307V64.8804H32.9923V58.1307H29.5713V74.9886H32.9923V68.239H38.1239V74.9886H41.545V58.1307H38.1239Z" fill="#393939"/>
<path d="M108.986 58.1307H105.565V74.9886H108.986V58.1307Z" fill="#393939"/>
<path d="M97.8608 58.1307V71.63L94.045 74.9886H101.282V58.1307H97.8608Z" fill="#393939"/>
<path d="M70.6569 58.1307V68.2662L65.5256 58.1616H65.5253V58.1307H62.1042V74.9886H65.5253V64.8463L70.6569 74.9513V74.9886H74.0779V58.1307H70.6569Z" fill="#393939"/>
<path d="M138.091 58.1307V68.2662L132.96 58.1616H132.96V58.1307H129.538V74.9886H132.96V64.8463L138.091 74.9513V74.9886H141.512V58.1307H138.091Z" fill="#393939"/>
<path d="M45.828 58.1307V68.239L49.2491 64.8804V61.4894H54.3806V64.8804H50.4333L45.828 69.4016V74.9886H49.2491V68.239H54.3806V74.9886H57.8017V58.1307H45.828Z" fill="#393939"/>
<path d="M113.275 58.1307V68.239L116.696 64.8804V61.4894H121.828V64.8804H117.881L113.275 69.4016V74.9886H116.696V68.239H121.828V74.9886H125.249V58.1307H113.275Z" fill="#393939"/>
<path d="M25.2753 61.4894H16.7227V71.5008L13.3016 74.8595V58.1307H25.2753V61.4894ZM17.7753 71.63L14.3543 74.9886H25.2753V71.63H17.7753Z" fill="#393939"/>
<path d="M90.3411 61.4894H81.7885V71.5008L78.3674 74.8595V58.1307H90.3411V61.4894ZM85.2095 64.8804V68.239H86.9201V71.63H82.8411L79.4201 74.9886H90.3411V64.8804H85.2095Z" fill="#393939"/>
<path d="M157.789 61.4894H149.236V71.5008L145.815 74.8595V58.1307H157.789V61.4894ZM152.657 64.8804V68.239H154.367V71.63H150.289L146.867 74.9886H157.789V64.8804H152.657Z" fill="#393939"/>
</g>
<defs>
<clipPath id="clip0_74_120">
<rect width="170" height="85" fill="white" transform="translate(0.538452)"/>
</clipPath>
</defs>
</svg>
